{"title":"Snatch-720p MP4 AAC x264 BRRip 2000-CC","uid":7548540,"size":2404817379,"categoryP":"video","categoryS":"hd___movies","magnet":"?xt=urn:btih:e2965549a89fd97196d7db954b4e9b1e6cd76369&amp;dn=Snatch-720p+MP4+AAC+x264+BRRip+2000-CC&amp;tr=udp%3A%2F%2Ftracker.openbittorrent.com%3A80&amp;tr=udp%3A%2F%2Fopen.demonii.com%3A1337&amp;tr=udp%3A%2F%2Ftracker.coppersurfer.tk%3A6969&amp;tr=udp%3A%2F%2Fexodus.desync.com%3A6969","seeders":0,"leechers":0,"uploader":"Caveman44","files":-1,"time":1345414346,"description":" &lt;a href=&quot;http://www.imdb.com/title/tt0208092/&quot; rel=&quot;nofollow&quot; target=&quot;_NEW&quot;&gt;http://www.imdb.com/title/tt0208092/&lt;/a&gt;\n\nSource:Thanks!\n\nSubs: Bosnian, Brazilian, Croatian, Danish, Dutch, English, Farsi-Persian, Finnish, French, Greek, Hebrew, Polish, Servian, Slovenian, Spanish, Swedish, Turkish and Vietnamese.\n\nSample and Screens included.\n\nGeneral\nComplete name                    : Snatch-720p MP4 AACx264 BRRip 2000-CC.mp4\nFormat                           : MPEG-4\nFormat profile                   : Base Media\nCodec ID                         : isom\nFile size                        : 2.21 GiB\nDuration                         : 1h 42mn\nOverall bit rate                 : 3 082 Kbps\nEncoded date                     : UTC 2012-07-26 17:31:00\n\nVideo\nID                               : 1\nFormat                           : AVC\nFormat/Info                      : Advanced Video Codec\nFormat profile                   : &lt;a class=&quot;__cf_email__&quot; href=&quot;/cdn-cgi/l/email-protection&quot; data-cfemail=&quot;347c5d535c7478071a05&quot;&gt;[email&amp;#160;protected]&lt;/a&gt;&lt;script data-cfhash='f9e31' type=&quot;text/javascript&quot;&gt;\n/* &lt;![CDATA[ */!function(){try{var t=&quot;currentScript&quot;in document?document.currentScript:function(){for(var t=document.getElementsByTagName(&quot;script&quot;),e=t.length;e--;)if(t[e].getAttribute(&quot;data-cfhash&quot;))return t[e]}();if(t&amp;&amp;t.previousSibling){var e,r,n,i,c=t.previousSibling,a=c.getAttribute(&quot;data-cfemail&quot;);if(a){for(e=&quot;&quot;,r=parseInt(a.substr(0,2),16),n=2;a.length-n;n+=2)i=parseInt(a.substr(n,2),16)^r,e+=String.fromCharCode(i);e=document.createTextNode(e),c.parentNode.replaceChild(e,c)}t.parentNode.removeChild(t);}}catch(u){}}()/* ]]&gt; */&lt;/script&gt;\nFormat settings, CABAC           : Yes\nFormat settings, ReFrames        : 5 frames\nCodec ID                         : avc1\nCodec ID/Info                    : Advanced Video Coding\nDuration                         : 1h 42mn\nBit rate mode                    : Variable\nBit rate                         : 2 694 Kbps\nNominal bit rate                 : 2 727 Kbps\nMaximum bit rate                 : 22.6 Mbps\nWidth                            : 1 280 pixels\nHeight                           : 688 pixels\nDisplay aspect ratio             : 16:9\nFrame rate mode                  : Variable\nFrame rate                       : 23.976 fps\nMinimum frame rate               : 19.048 fps\nMaximum frame rate               : 24.390 fps\nResolution                       : 24 bits\nColorimetry                      : 4:2:0\nScan type                        : Progressive\nBits/(Pixel*Frame)               : 0.128\nStream size                      : 1.93 GiB (87%)\nWriting library                  : x264 core 112\n\nAudio\nID                               : 2\nFormat                           : AAC\nFormat/Info                      : Advanced Audio Codec\nFormat version                   : Version 4\nFormat profile                   : LC\nFormat settings, SBR             : No\nCodec ID                         : 40\nDuration                         : 1h 42mn\nBit rate mode                    : Variable\nBit rate                         : 384 Kbps\nMaximum bit rate                 : 684 Kbps\nChannel(s)                       : 6 channels\nChannel positions                : Front: L C R, Rear: L R, LFE\nSampling rate                    : 48.0 KHz\nResolution                       : 16 bits\nStream size                      : 282 MiB (12%)\nLanguage                         : English\n\nEnjoy...\n\nRequested by cmptrluvr's. \n\nComing up soon: The Manchurian Candidate, Before the Devil Knows Youre Dead, The Recruit, The Bourne Trilogy....","torrent":{"xt":"urn:btih:e2965549a89fd97196d7db954b4e9b1e6cd76369","amp;dn":"Snatch-720p+MP4+AAC+x264+BRRip+2000-CC","amp;tr":["udp%3A%2F%2Ftracker.openbittorrent.com%3A80","udp%3A%2F%2Fopen.demonii.com%3A1337","udp%3A%2F%2Ftracker.coppersurfer.tk%3A6969","udp%3A%2F%2Fexodus.desync.com%3A6969"],"infoHash":"e2965549a89fd97196d7db954b4e9b1e6cd76369","infoHashBuffer":{"type":"Buffer","data":[226,150,85,73,168,159,217,113,150,215,219,149,75,78,155,30,108,215,99,105]},"announce":[],"urlList":[]}}